<svg xmlns="http://www.w3.org/2000/svg" version="1.1" xmlns:xlink="http://www.w3.org/1999/xlink" xmlns:svgjs="http://svgjs.dev/svgjs" width="1000" height="1000" viewBox="0 0 1000 1000"><rect width="1000" height="1000" fill="#000000"></rect><g transform="matrix(0.7,0,0,0.7,150,106.25)"><svg viewBox="0 0 320 360" data-background-color="#ffffff" preserveAspectRatio="xMidYMid meet" height="1125" width="1000" xmlns="http://www.w3.org/2000/svg" xmlns:xlink="http://www.w3.org/1999/xlink"><g id="tight-bounds" transform="matrix(1,0,0,1,0,0)"><svg viewBox="0 0 320 360" height="360" width="320"><g><svg></svg></g><g><svg viewBox="0 0 320 360" height="360" width="320"><g><path xmlns="http://www.w3.org/2000/svg" d="M320 141.95l-19.957-19.957v-28.224l-53.812-53.812h-28.223l-19.958-19.957h-76.1l-19.957 19.957h-28.224l-53.812 53.812v28.224l-19.957 19.957v76.104l19.957 19.958v28.223l53.816 53.808h28.224l19.957 19.957h76.104l19.958-19.957h28.223l53.812-53.812v-28.224l19.949-19.957zM244.374 44.437l51.189 51.189v21.887l-73.076-73.076zM295.563 123.849v112.306l-79.408 79.408h-112.306l-79.412-79.412v-112.302l79.412-79.412h112.306zM123.807 24.48h72.39l15.478 15.477h-103.346zM24.437 95.626l51.189-51.189h21.887l-73.076 73.076zM4.484 216.197v-72.394l15.477-15.478v103.342zM75.626 315.563l-51.189-51.189v-21.887l73.076 73.076zM196.197 335.52h-72.39l-15.478-15.477h103.342zM295.563 264.374l-51.189 51.189h-21.887l73.076-73.076zM315.52 216.197l-15.477 15.478v-103.346l15.477 15.478z" fill="#0074d9" fill-rule="nonzero" stroke="none" stroke-width="1" stroke-linecap="butt" stroke-linejoin="miter" stroke-miterlimit="10" stroke-dasharray="" stroke-dashoffset="0" font-family="none" font-weight="none" font-size="none" text-anchor="none" style="mix-blend-mode: normal" data-fill-palette-color="tertiary"></path></g><g transform="matrix(1,0,0,1,75.87467669407982,90)"><svg viewBox="0 0 168.25064661184035 180" height="180" width="168.25064661184035"><g><svg viewBox="0 0 207.99999999999997 222.52514777179596" height="180" width="168.25064661184035"><g transform="matrix(1,0,0,1,0,137.5451623883816)"><svg viewBox="0 0 207.99999999999997 84.97998538341434" height="84.97998538341434" width="207.99999999999997"><g><svg viewBox="0 0 207.99999999999997 84.97998538341434" height="84.97998538341434" width="207.99999999999997"><g><svg viewBox="0 0 207.99999999999997 45.834143467373686" height="45.834143467373686" width="207.99999999999997"><g transform="matrix(1,0,0,1,0,0)"><svg width="207.99999999999997" viewBox="3.6100001335144043 -36.040000915527344 165.74000549316406 36.53000259399414" height="45.834143467373686" data-palette-color="#0074d9"><path d="M3.61-35.55L11.62-35.55 21.88-8.3 32.1-35.55 40.09-35.55 40.09 0 33.94 0 33.94-11.72 34.55-27.39 24.05 0 19.63 0 9.16-27.37 9.77-11.72 9.77 0 3.61 0 3.61-35.55ZM70.63 0L67.72-8.28 53.95-8.28 51.07 0 44.65 0 58.08-35.55 63.62-35.55 77.07 0 70.63 0ZM60.84-28L55.69-13.26 65.99-13.26 60.84-28ZM102 0L91.3-15.36 87.28-11.08 87.28 0 81.1 0 81.1-35.55 87.28-35.55 87.28-18.87 90.69-23.1 101.09-35.55 108.56-35.55 95.36-19.8 109.32 0 102 0ZM131.19-9.16L131.19-9.16Q131.19-11.5 129.55-12.77 127.9-14.04 123.6-15.33 119.3-16.63 116.76-18.21L116.76-18.21Q111.91-21.26 111.91-26.17L111.91-26.17Q111.91-30.47 115.41-33.25 118.91-36.04 124.5-36.04L124.5-36.04Q128.22-36.04 131.12-34.67 134.03-33.3 135.69-30.77 137.35-28.25 137.35-25.17L137.35-25.17 131.19-25.17Q131.19-27.95 129.45-29.53 127.7-31.1 124.46-31.1L124.46-31.1Q121.43-31.1 119.76-29.81 118.08-28.52 118.08-26.2L118.08-26.2Q118.08-24.24 119.89-22.94 121.7-21.63 125.85-20.4 130-19.17 132.51-17.59 135.03-16.02 136.2-13.98 137.37-11.94 137.37-9.2L137.37-9.2Q137.37-4.76 133.96-2.14 130.56 0.49 124.72 0.49L124.72 0.49Q120.87 0.49 117.63-0.94 114.4-2.37 112.6-4.88 110.81-7.4 110.81-10.74L110.81-10.74 116.98-10.74Q116.98-7.71 118.99-6.05 120.99-4.39 124.72-4.39L124.72-4.39Q127.95-4.39 129.57-5.7 131.19-7.01 131.19-9.16ZM156.31-13.21L148.96-13.21 148.96 0 142.79 0 142.79-35.55 156.39-35.55Q162.34-35.55 165.85-32.45 169.35-29.35 169.35-24.24L169.35-24.24Q169.35-19.02 165.92-16.11 162.49-13.21 156.31-13.21L156.31-13.21ZM148.96-30.57L148.96-18.16 156.39-18.16Q159.68-18.16 161.42-19.71 163.15-21.26 163.15-24.19L163.15-24.19Q163.15-27.08 161.39-28.8 159.63-30.52 156.56-30.57L156.56-30.57 148.96-30.57Z" opacity="1" transform="matrix(1,0,0,1,0,0)" fill="#ffffff" class="undefined-text-0" data-fill-palette-color="primary" id="text-0"></path></svg></g></svg></g><g transform="matrix(1,0,0,1,0,56.6544847205774)"><svg viewBox="0 0 207.99999999999997 28.32550066283694" height="28.32550066283694" width="207.99999999999997"><g transform="matrix(1,0,0,1,0,0)"><svg width="207.99999999999997" viewBox="1.2699999809265137 -37.5 349.95001220703125 47.65999984741211" height="28.32550066283694" data-palette-color="#08c076"><path d="M1.27-13.4L1.27-13.4Q1.27-19.68 3.98-23.29 6.69-26.9 11.55-26.9L11.55-26.9Q15.09-26.9 17.5-24.12L17.5-24.12 17.5-37.5 25.76-37.5 25.76 0 18.36 0 17.94-2.83Q15.41 0.49 11.5 0.49L11.5 0.49Q6.79 0.49 4.03-3.13 1.27-6.74 1.27-13.4ZM9.52-14.4L9.5-12.89Q9.5-5.86 13.6-5.86L13.6-5.86Q16.33-5.86 17.5-8.15L17.5-8.15 17.5-18.21Q16.38-20.56 13.65-20.56L13.65-20.56Q9.84-20.56 9.52-14.4L9.52-14.4ZM49.05 0.49L49.05 0.49Q42.97 0.49 39.21-3.14 35.45-6.76 35.45-12.57L35.45-12.57 35.45-13.26Q35.45-17.31 36.96-20.41 38.46-23.51 41.34-25.21 44.22-26.9 48.17-26.9L48.17-26.9Q53.74-26.9 56.96-23.45 60.19-20 60.19-13.82L60.19-13.82 60.19-10.62 43.83-10.62Q44.27-8.4 45.76-7.13 47.25-5.86 49.61-5.86L49.61-5.86Q53.52-5.86 55.72-8.59L55.72-8.59 59.48-4.15Q57.94-2.03 55.12-0.77 52.3 0.49 49.05 0.49ZM48.12-20.56L48.12-20.56Q44.51-20.56 43.83-15.77L43.83-15.77 52.13-15.77 52.13-16.41Q52.18-18.38 51.13-19.47 50.08-20.56 48.12-20.56ZM75.45-26.42L79.55-9.79 83.73-26.42 92.39-26.42 83.77 0 75.38 0 66.76-26.42 75.45-26.42ZM113.15 0.49L113.15 0.49Q107.07 0.49 103.31-3.14 99.55-6.76 99.55-12.57L99.55-12.57 99.55-13.26Q99.55-17.31 101.05-20.41 102.55-23.51 105.43-25.21 108.31-26.9 112.27-26.9L112.27-26.9Q117.84-26.9 121.06-23.45 124.28-20 124.28-13.82L124.28-13.82 124.28-10.62 107.92-10.62Q108.36-8.4 109.85-7.13 111.34-5.86 113.71-5.86L113.71-5.86Q117.62-5.86 119.81-8.59L119.81-8.59 123.57-4.15Q122.04-2.03 119.22-0.77 116.4 0.49 113.15 0.49ZM112.22-20.56L112.22-20.56Q108.61-20.56 107.92-15.77L107.92-15.77 116.23-15.77 116.23-16.41Q116.27-18.38 115.22-19.47 114.17-20.56 112.22-20.56ZM142.11-37.5L142.11 0 133.86 0 133.86-37.5 142.11-37.5ZM152-12.06L151.98-13.45Q151.98-17.41 153.51-20.5 155.05-23.58 157.93-25.24 160.81-26.9 164.7-26.9L164.7-26.9Q170.63-26.9 174.05-23.23 177.47-19.56 177.47-13.23L177.47-13.23 177.47-12.94Q177.47-6.76 174.03-3.14 170.6 0.49 164.75 0.49L164.75 0.49Q159.11 0.49 155.69-2.89 152.27-6.27 152-12.06L152-12.06ZM160.23-14.43L160.2-12.94Q160.2-9.28 161.35-7.57 162.5-5.86 164.75-5.86L164.75-5.86Q169.14-5.86 169.24-12.62L169.24-12.62 169.24-13.45Q169.24-20.56 164.7-20.56L164.7-20.56Q160.57-20.56 160.23-14.43L160.23-14.43ZM211.45-13.4L211.45-13.01Q211.45-6.86 208.68-3.19 205.91 0.49 201.2 0.49L201.2 0.49Q197.56 0.49 195.22-2.17L195.22-2.17 195.22 10.16 186.99 10.16 186.99-26.42 194.68-26.42 194.93-23.97Q197.29-26.9 201.15-26.9L201.15-26.9Q206.03-26.9 208.74-23.3 211.45-19.7 211.45-13.4L211.45-13.4ZM203.23-12.65L203.23-13.53Q203.23-20.56 199.13-20.56L199.13-20.56Q196.2-20.56 195.22-18.46L195.22-18.46 195.22-8.06Q196.29-5.86 199.17-5.86L199.17-5.86Q203.1-5.86 203.23-12.65L203.23-12.65ZM220.98-26.42L228.7-26.42 228.96-23.32Q231.77-26.9 236.51-26.9L236.51-26.9Q241.51-26.9 243.27-22.92L243.27-22.92Q245.96-26.9 251.03-26.9L251.03-26.9Q259.07-26.9 259.29-17.19L259.29-17.19 259.29 0 251.03 0 251.03-16.67Q251.03-18.7 250.35-19.63 249.67-20.56 247.86-20.56L247.86-20.56Q245.42-20.56 244.22-18.38L244.22-18.38 244.25-18.04 244.25 0 236 0 236-16.63Q236-18.7 235.34-19.63 234.68-20.56 232.82-20.56L232.82-20.56Q230.45-20.56 229.21-18.38L229.21-18.38 229.21 0 220.98 0 220.98-26.42ZM282.61 0.49L282.61 0.49Q276.53 0.49 272.77-3.14 269.01-6.76 269.01-12.57L269.01-12.57 269.01-13.26Q269.01-17.31 270.51-20.41 272.01-23.51 274.89-25.21 277.77-26.9 281.73-26.9L281.73-26.9Q287.29-26.9 290.52-23.45 293.74-20 293.74-13.82L293.74-13.82 293.74-10.62 277.38-10.62Q277.82-8.4 279.31-7.13 280.8-5.86 283.17-5.86L283.17-5.86Q287.07-5.86 289.27-8.59L289.27-8.59 293.03-4.15Q291.49-2.03 288.67-0.77 285.85 0.49 282.61 0.49ZM281.68-20.56L281.68-20.56Q278.07-20.56 277.38-15.77L277.38-15.77 285.68-15.77 285.68-16.41Q285.73-18.38 284.68-19.47 283.63-20.56 281.68-20.56ZM302.73-26.42L310.44-26.42 310.71-23.32Q313.45-26.9 318.26-26.9L318.26-26.9Q322.38-26.9 324.42-24.44 326.46-21.97 326.53-17.02L326.53-17.02 326.53 0 318.28 0 318.28-16.67Q318.28-18.68 317.47-19.62 316.67-20.56 314.54-20.56L314.54-20.56Q312.13-20.56 310.96-18.65L310.96-18.65 310.96 0 302.73 0 302.73-26.42ZM338.28-32.98L346.51-32.98 346.51-26.42 350.85-26.42 350.85-20.7 346.51-20.7 346.51-8.62Q346.51-7.13 347.04-6.54 347.58-5.96 349.17-5.96L349.17-5.96Q350.39-5.96 351.22-6.1L351.22-6.1 351.22-0.22Q349 0.49 346.58 0.49L346.58 0.49Q342.33 0.49 340.31-1.51 338.28-3.52 338.28-7.59L338.28-7.59 338.28-20.7 334.91-20.7 334.91-26.42 338.28-26.42 338.28-32.98Z" opacity="1" transform="matrix(1,0,0,1,0,0)" fill="#ffffff" class="undefined-text-1" data-fill-palette-color="secondary" id="text-1"></path></svg></g></svg></g></svg></g></svg></g><g transform="matrix(1,0,0,1,46.04776005901289,0)"><svg viewBox="0 0 115.9044798819742 115.9044798819742" height="115.9044798819742" width="115.9044798819742"><g><svg></svg></g><g id="icon-0"><svg viewBox="0 0 115.9044798819742 115.9044798819742" height="115.9044798819742" width="115.9044798819742"><g><path d="M0 57.952c0-32.006 25.946-57.952 57.952-57.952 32.006 0 57.952 25.946 57.952 57.952 0 32.006-25.946 57.952-57.952 57.952-32.006 0-57.952-25.946-57.952-57.952zM57.952 111.771c29.723 0 53.819-24.096 53.819-53.819 0-29.723-24.096-53.819-53.819-53.819-29.723 0-53.819 24.096-53.819 53.819 0 29.723 24.096 53.819 53.819 53.819z" data-fill-palette-color="accent" fill="#ffffff" stroke="transparent"></path><ellipse rx="57.372717541577224" ry="57.372717541577224" cx="57.9522399409871" cy="57.9522399409871" fill="#ffffff" stroke="transparent" stroke-width="0" fill-opacity="1" data-fill-palette-color="accent"></ellipse></g><g transform="matrix(1,0,0,1,27.76232334597807,39.39890365030736)"><svg viewBox="0 0 60.379833190018054 37.10667258135948" height="37.10667258135948" width="60.379833190018054"><g><svg xmlns="http://www.w3.org/2000/svg" data-name="Layer 1" viewBox="2.430551767349243 20.79190444946289 95.1390609741211 58.46809768676758" x="0" y="0" height="37.10667258135948" width="60.379833190018054" class="icon-a-0" data-fill-palette-color="quaternary" id="a-0"><path d="M62.78 23l32 55.42 1.3-2.26h-64l1.3 2.26L65.37 23a1.5 1.5 0 0 0-2.59-1.51L30.79 77a1.51 1.51 0 0 0 1.3 2.26h64A1.51 1.51 0 0 0 97.37 77l-32-55.42A1.5 1.5 0 0 0 62.78 23Z" fill="#248d24" data-fill-palette-color="quaternary"></path><path d="M34.63 23l32 55.42 1.3-2.26h-64l1.3 2.26L37.22 23a1.5 1.5 0 0 0-2.59-1.51L2.63 77a1.51 1.51 0 0 0 1.3 2.26h64A1.51 1.51 0 0 0 69.21 77l-32-55.42A1.5 1.5 0 0 0 34.63 23Z" fill="#248d24" data-fill-palette-color="quaternary"></path></svg></g></svg></g></svg></g></svg></g><g></g></svg></g></svg></g></svg></g><defs><mask id="c34dd364-417c-4acf-8a82-bcb9a7b02a24"><rect width="640" height="400" fill="white"></rect><rect width="348.05760000000004" height="160.14839447529613" fill="black" x="145.97119999999998" y="119.92580276235194" id="transform-me" transform="matrix(1,0,0,1,-203.84667913958083,-76.4)"></rect></mask></defs></svg><rect width="320" height="360" fill="none" stroke="none" visibility="hidden"></rect></g></svg></g></svg>